<svg xmlns="http://www.w3.org/2000/svg" viewBox="0 0 512 512" width="512" height="512">
  <defs>
    <radialGradient id="bg" cx="50%" cy="35%" r="75%">
      <stop offset="0%" stop-color="#10203a"/>
      <stop offset="60%" stop-color="#0a1120"/>
      <stop offset="100%" stop-color="#070b12"/>
    </radialGradient>
    <radialGradient id="halo" cx="50%" cy="50%" r="50%">
      <stop offset="0%" stop-color="#00d4ff" stop-opacity="0.22"/>
      <stop offset="100%" stop-color="#00d4ff" stop-opacity="0"/>
    </radialGradient>
    <filter id="glowC" x="-20%" y="-50%" width="140%" height="200%">
      <feGaussianBlur stdDeviation="7" result="b"/>
      <feMerge><feMergeNode in="b"/><feMergeNode in="SourceGraphic"/></feMerge>
    </filter>
  </defs>
  <rect width="512" height="512" rx="112" fill="url(#bg)"/>
  <circle cx="256.0" cy="256.0" r="223.6" fill="url(#halo)"/>
  <circle cx="256.0" cy="256.0" r="223.6" fill="none" stroke="#1a2540" stroke-width="3"/>
  <path d="M56.32,256.00 L57.32,255.99 L58.32,255.95 L59.32,255.87 L60.31,255.76 L61.31,255.62 L62.31,255.43 L63.31,255.20 L64.31,254.93 L65.31,254.62 L66.30,254.27 L67.30,253.88 L68.30,253.45 L69.30,252.98 L70.30,252.47 L71.30,251.92 L72.29,251.34 L73.29,250.72 L74.29,250.07 L75.29,249.39 L76.29,248.68 L77.29,247.95 L78.28,247.19 L79.28,246.41 L80.28,245.61 L81.28,244.79 L82.28,243.96 L83.28,243.11 L84.28,242.26 L85.27,241.41 L86.27,240.55 L87.27,239.69 L88.27,238.84 L89.27,237.99 L90.27,237.16 L91.26,236.34 L92.26,235.54 L93.26,234.76 L94.26,234.01 L95.26,233.28 L96.26,232.58 L97.25,231.92 L98.25,231.30 L99.25,230.71 L100.25,230.18 L101.25,229.68 L102.25,229.24 L103.24,228.85 L104.24,228.52 L105.24,228.25 L106.24,228.04 L107.24,227.89 L108.24,227.80 L109.24,227.79 L110.23,227.84 L111.23,227.97 L112.23,228.17 L113.23,228.44 L114.23,228.79 L115.23,229.22 L116.22,229.73 L117.22,230.31 L118.22,230.98 L119.22,231.72 L120.22,232.55 L121.22,233.45 L122.21,234.44 L123.21,235.50 L124.21,236.65 L125.21,237.87 L126.21,239.17 L127.21,240.54 L128.20,241.99 L129.20,243.51 L130.20,245.10 L131.20,246.76 L132.20,248.49 L133.20,250.28 L134.20,252.13 L135.19,254.04 L136.19,256.00 L137.19,258.01 L138.19,260.08 L139.19,262.18 L140.19,264.33 L141.18,266.52 L142.18,268.74 L143.18,270.98 L144.18,273.25 L145.18,275.54 L146.18,277.85 L147.17,280.17 L148.17,282.49 L149.17,284.82 L150.17,287.14 L151.17,289.45 L152.17,291.75 L153.16,294.03 L154.16,296.29 L155.16,298.52 L156.16,300.71 L157.16,302.87 L158.16,304.98 L159.16,307.05 L160.15,309.06 L161.15,311.02 L162.15,312.91 L163.15,314.73 L164.15,316.48 L165.15,318.15 L166.14,319.74 L167.14,321.25 L168.14,322.67 L169.14,323.99 L170.14,325.22 L171.14,326.34 L172.13,327.36 L173.13,328.27 L174.13,329.07 L175.13,329.76 L176.13,330.32 L177.13,330.77 L178.12,331.10 L179.12,331.30 L180.12,331.38 L181.12,331.33 L182.12,331.15 L183.12,330.84 L184.12,330.40 L185.11,329.83 L186.11,329.13 L187.11,328.30 L188.11,327.34 L189.11,326.24 L190.11,325.02 L191.10,323.66 L192.10,322.18 L193.10,320.57 L194.10,318.84 L195.10,316.98 L196.10,315.01 L197.09,312.92 L198.09,310.71 L199.09,308.39 L200.09,305.97 L201.09,303.44 L202.09,300.80 L203.08,298.08 L204.08,295.25 L205.08,292.35 L206.08,289.35 L207.08,286.28 L208.08,283.14 L209.08,279.93 L210.07,276.65 L211.07,273.32 L212.07,269.94 L213.07,266.51 L214.07,263.04 L215.07,259.53 L216.06,256.00 L217.06,252.45 L218.06,248.88 L219.06,245.30 L220.06,241.72 L221.06,238.14 L222.05,234.57 L223.05,231.02 L224.05,227.49 L225.05,224.00 L226.05,220.53 L227.05,217.11 L228.04,213.74 L229.04,210.42 L230.04,207.17 L231.04,203.98 L232.04,200.86 L233.04,197.82 L234.04,194.86 L235.03,192.00 L236.03,189.23 L237.03,186.56 L238.03,183.99 L239.03,181.53 L240.03,179.19 L241.02,176.97 L242.02,174.87 L243.02,172.90 L244.02,171.05 L245.02,169.35 L246.02,167.78 L247.01,166.35 L248.01,165.06 L249.01,163.92 L250.01,162.93 L251.01,162.08 L252.01,161.39 L253.00,160.85 L254.00,160.46 L255.00,160.23 L256.00,160.15 L257.00,160.23 L258.00,160.46 L259.00,160.85 L259.99,161.39 L260.99,162.08 L261.99,162.93 L262.99,163.92 L263.99,165.06 L264.99,166.35 L265.98,167.78 L266.98,169.35 L267.98,171.05 L268.98,172.90 L269.98,174.87 L270.98,176.97 L271.97,179.19 L272.97,181.53 L273.97,183.99 L274.97,186.56 L275.97,189.23 L276.97,192.00 L277.96,194.86 L278.96,197.82 L279.96,200.86 L280.96,203.98 L281.96,207.17 L282.96,210.42 L283.96,213.74 L284.95,217.11 L285.95,220.53 L286.95,224.00 L287.95,227.49 L288.95,231.02 L289.95,234.57 L290.94,238.14 L291.94,241.72 L292.94,245.30 L293.94,248.88 L294.94,252.45 L295.94,256.00 L296.93,259.53 L297.93,263.04 L298.93,266.51 L299.93,269.94 L300.93,273.32 L301.93,276.65 L302.92,279.93 L303.92,283.14 L304.92,286.28 L305.92,289.35 L306.92,292.35 L307.92,295.25 L308.92,298.08 L309.91,300.80 L310.91,303.44 L311.91,305.97 L312.91,308.39 L313.91,310.71 L314.91,312.92 L315.90,315.01 L316.90,316.98 L317.90,318.84 L318.90,320.57 L319.90,322.18 L320.90,323.66 L321.89,325.02 L322.89,326.24 L323.89,327.34 L324.89,328.30 L325.89,329.13 L326.89,329.83 L327.88,330.40 L328.88,330.84 L329.88,331.15 L330.88,331.33 L331.88,331.38 L332.88,331.30 L333.88,331.10 L334.87,330.77 L335.87,330.32 L336.87,329.76 L337.87,329.07 L338.87,328.27 L339.87,327.36 L340.86,326.34 L341.86,325.22 L342.86,323.99 L343.86,322.67 L344.86,321.25 L345.86,319.74 L346.85,318.15 L347.85,316.48 L348.85,314.73 L349.85,312.91 L350.85,311.02 L351.85,309.06 L352.84,307.05 L353.84,304.98 L354.84,302.87 L355.84,300.71 L356.84,298.52 L357.84,296.29 L358.84,294.03 L359.83,291.75 L360.83,289.45 L361.83,287.14 L362.83,284.82 L363.83,282.49 L364.83,280.17 L365.82,277.85 L366.82,275.54 L367.82,273.25 L368.82,270.98 L369.82,268.74 L370.82,266.52 L371.81,264.33 L372.81,262.18 L373.81,260.08 L374.81,258.01 L375.81,256.00 L376.81,254.04 L377.80,252.13 L378.80,250.28 L379.80,248.49 L380.80,246.76 L381.80,245.10 L382.80,243.51 L383.80,241.99 L384.79,240.54 L385.79,239.17 L386.79,237.87 L387.79,236.65 L388.79,235.50 L389.79,234.44 L390.78,233.45 L391.78,232.55 L392.78,231.72 L393.78,230.98 L394.78,230.31 L395.78,229.73 L396.77,229.22 L397.77,228.79 L398.77,228.44 L399.77,228.17 L400.77,227.97 L401.77,227.84 L402.76,227.79 L403.76,227.80 L404.76,227.89 L405.76,228.04 L406.76,228.25 L407.76,228.52 L408.76,228.85 L409.75,229.24 L410.75,229.68 L411.75,230.18 L412.75,230.71 L413.75,231.30 L414.75,231.92 L415.74,232.58 L416.74,233.28 L417.74,234.01 L418.74,234.76 L419.74,235.54 L420.74,236.34 L421.73,237.16 L422.73,237.99 L423.73,238.84 L424.73,239.69 L425.73,240.55 L426.73,241.41 L427.72,242.26 L428.72,243.11 L429.72,243.96 L430.72,244.79 L431.72,245.61 L432.72,246.41 L433.72,247.19 L434.71,247.95 L435.71,248.68 L436.71,249.39 L437.71,250.07 L438.71,250.72 L439.71,251.34 L440.70,251.92 L441.70,252.47 L442.70,252.98 L443.70,253.45 L444.70,253.88 L445.70,254.27 L446.69,254.62 L447.69,254.93 L448.69,255.20 L449.69,255.43 L450.69,255.62 L451.69,255.76 L452.68,255.87 L453.68,255.95 L454.68,255.99 L455.68,256.00" fill="none" stroke="#b07aff" stroke-width="13.3" stroke-linecap="round" stroke-opacity="0.9" filter="url(#glowC)"/>
  <path d="M56.32,256.00 L57.32,256.01 L58.32,256.05 L59.32,256.13 L60.31,256.24 L61.31,256.38 L62.31,256.57 L63.31,256.80 L64.31,257.07 L65.31,257.38 L66.30,257.73 L67.30,258.12 L68.30,258.55 L69.30,259.02 L70.30,259.53 L71.30,260.08 L72.29,260.66 L73.29,261.28 L74.29,261.93 L75.29,262.61 L76.29,263.32 L77.29,264.05 L78.28,264.81 L79.28,265.59 L80.28,266.39 L81.28,267.21 L82.28,268.04 L83.28,268.89 L84.28,269.74 L85.27,270.59 L86.27,271.45 L87.27,272.31 L88.27,273.16 L89.27,274.01 L90.27,274.84 L91.26,275.66 L92.26,276.46 L93.26,277.24 L94.26,277.99 L95.26,278.72 L96.26,279.42 L97.25,280.08 L98.25,280.70 L99.25,281.29 L100.25,281.82 L101.25,282.32 L102.25,282.76 L103.24,283.15 L104.24,283.48 L105.24,283.75 L106.24,283.96 L107.24,284.11 L108.24,284.20 L109.24,284.21 L110.23,284.16 L111.23,284.03 L112.23,283.83 L113.23,283.56 L114.23,283.21 L115.23,282.78 L116.22,282.27 L117.22,281.69 L118.22,281.02 L119.22,280.28 L120.22,279.45 L121.22,278.55 L122.21,277.56 L123.21,276.50 L124.21,275.35 L125.21,274.13 L126.21,272.83 L127.21,271.46 L128.20,270.01 L129.20,268.49 L130.20,266.90 L131.20,265.24 L132.20,263.51 L133.20,261.72 L134.20,259.87 L135.19,257.96 L136.19,256.00 L137.19,253.99 L138.19,251.92 L139.19,249.82 L140.19,247.67 L141.18,245.48 L142.18,243.26 L143.18,241.02 L144.18,238.75 L145.18,236.46 L146.18,234.15 L147.17,231.83 L148.17,229.51 L149.17,227.18 L150.17,224.86 L151.17,222.55 L152.17,220.25 L153.16,217.97 L154.16,215.71 L155.16,213.48 L156.16,211.29 L157.16,209.13 L158.16,207.02 L159.16,204.95 L160.15,202.94 L161.15,200.98 L162.15,199.09 L163.15,197.27 L164.15,195.52 L165.15,193.85 L166.14,192.26 L167.14,190.75 L168.14,189.33 L169.14,188.01 L170.14,186.78 L171.14,185.66 L172.13,184.64 L173.13,183.73 L174.13,182.93 L175.13,182.24 L176.13,181.68 L177.13,181.23 L178.12,180.90 L179.12,180.70 L180.12,180.62 L181.12,180.67 L182.12,180.85 L183.12,181.16 L184.12,181.60 L185.11,182.17 L186.11,182.87 L187.11,183.70 L188.11,184.66 L189.11,185.76 L190.11,186.98 L191.10,188.34 L192.10,189.82 L193.10,191.43 L194.10,193.16 L195.10,195.02 L196.10,196.99 L197.09,199.08 L198.09,201.29 L199.09,203.61 L200.09,206.03 L201.09,208.56 L202.09,211.20 L203.08,213.92 L204.08,216.75 L205.08,219.65 L206.08,222.65 L207.08,225.72 L208.08,228.86 L209.08,232.07 L210.07,235.35 L211.07,238.68 L212.07,242.06 L213.07,245.49 L214.07,248.96 L215.07,252.47 L216.06,256.00 L217.06,259.55 L218.06,263.12 L219.06,266.70 L220.06,270.28 L221.06,273.86 L222.05,277.43 L223.05,280.98 L224.05,284.51 L225.05,288.00 L226.05,291.47 L227.05,294.89 L228.04,298.26 L229.04,301.58 L230.04,304.83 L231.04,308.02 L232.04,311.14 L233.04,314.18 L234.04,317.14 L235.03,320.00 L236.03,322.77 L237.03,325.44 L238.03,328.01 L239.03,330.47 L240.03,332.81 L241.02,335.03 L242.02,337.13 L243.02,339.10 L244.02,340.95 L245.02,342.65 L246.02,344.22 L247.01,345.65 L248.01,346.94 L249.01,348.08 L250.01,349.07 L251.01,349.92 L252.01,350.61 L253.00,351.15 L254.00,351.54 L255.00,351.77 L256.00,351.85 L257.00,351.77 L258.00,351.54 L259.00,351.15 L259.99,350.61 L260.99,349.92 L261.99,349.07 L262.99,348.08 L263.99,346.94 L264.99,345.65 L265.98,344.22 L266.98,342.65 L267.98,340.95 L268.98,339.10 L269.98,337.13 L270.98,335.03 L271.97,332.81 L272.97,330.47 L273.97,328.01 L274.97,325.44 L275.97,322.77 L276.97,320.00 L277.96,317.14 L278.96,314.18 L279.96,311.14 L280.96,308.02 L281.96,304.83 L282.96,301.58 L283.96,298.26 L284.95,294.89 L285.95,291.47 L286.95,288.00 L287.95,284.51 L288.95,280.98 L289.95,277.43 L290.94,273.86 L291.94,270.28 L292.94,266.70 L293.94,263.12 L294.94,259.55 L295.94,256.00 L296.93,252.47 L297.93,248.96 L298.93,245.49 L299.93,242.06 L300.93,238.68 L301.93,235.35 L302.92,232.07 L303.92,228.86 L304.92,225.72 L305.92,222.65 L306.92,219.65 L307.92,216.75 L308.92,213.92 L309.91,211.20 L310.91,208.56 L311.91,206.03 L312.91,203.61 L313.91,201.29 L314.91,199.08 L315.90,196.99 L316.90,195.02 L317.90,193.16 L318.90,191.43 L319.90,189.82 L320.90,188.34 L321.89,186.98 L322.89,185.76 L323.89,184.66 L324.89,183.70 L325.89,182.87 L326.89,182.17 L327.88,181.60 L328.88,181.16 L329.88,180.85 L330.88,180.67 L331.88,180.62 L332.88,180.70 L333.88,180.90 L334.87,181.23 L335.87,181.68 L336.87,182.24 L337.87,182.93 L338.87,183.73 L339.87,184.64 L340.86,185.66 L341.86,186.78 L342.86,188.01 L343.86,189.33 L344.86,190.75 L345.86,192.26 L346.85,193.85 L347.85,195.52 L348.85,197.27 L349.85,199.09 L350.85,200.98 L351.85,202.94 L352.84,204.95 L353.84,207.02 L354.84,209.13 L355.84,211.29 L356.84,213.48 L357.84,215.71 L358.84,217.97 L359.83,220.25 L360.83,222.55 L361.83,224.86 L362.83,227.18 L363.83,229.51 L364.83,231.83 L365.82,234.15 L366.82,236.46 L367.82,238.75 L368.82,241.02 L369.82,243.26 L370.82,245.48 L371.81,247.67 L372.81,249.82 L373.81,251.92 L374.81,253.99 L375.81,256.00 L376.81,257.96 L377.80,259.87 L378.80,261.72 L379.80,263.51 L380.80,265.24 L381.80,266.90 L382.80,268.49 L383.80,270.01 L384.79,271.46 L385.79,272.83 L386.79,274.13 L387.79,275.35 L388.79,276.50 L389.79,277.56 L390.78,278.55 L391.78,279.45 L392.78,280.28 L393.78,281.02 L394.78,281.69 L395.78,282.27 L396.77,282.78 L397.77,283.21 L398.77,283.56 L399.77,283.83 L400.77,284.03 L401.77,284.16 L402.76,284.21 L403.76,284.20 L404.76,284.11 L405.76,283.96 L406.76,283.75 L407.76,283.48 L408.76,283.15 L409.75,282.76 L410.75,282.32 L411.75,281.82 L412.75,281.29 L413.75,280.70 L414.75,280.08 L415.74,279.42 L416.74,278.72 L417.74,277.99 L418.74,277.24 L419.74,276.46 L420.74,275.66 L421.73,274.84 L422.73,274.01 L423.73,273.16 L424.73,272.31 L425.73,271.45 L426.73,270.59 L427.72,269.74 L428.72,268.89 L429.72,268.04 L430.72,267.21 L431.72,266.39 L432.72,265.59 L433.72,264.81 L434.71,264.05 L435.71,263.32 L436.71,262.61 L437.71,261.93 L438.71,261.28 L439.71,260.66 L440.70,260.08 L441.70,259.53 L442.70,259.02 L443.70,258.55 L444.70,258.12 L445.70,257.73 L446.69,257.38 L447.69,257.07 L448.69,256.80 L449.69,256.57 L450.69,256.38 L451.69,256.24 L452.68,256.13 L453.68,256.05 L454.68,256.01 L455.68,256.00" fill="none" stroke="#00d4ff" stroke-width="15.4" stroke-linecap="round" filter="url(#glowC)"/>
  <circle cx="32.4" cy="256.0" r="11.3" fill="#00d4ff"/>
  <circle cx="479.6" cy="256.0" r="11.3" fill="#b07aff"/>
</svg>